<svg width="120" height="80" viewBox="0 0 120 80" xmlns="http://www.w3.org/2000/svg">
  <!-- Background gradient -->
  <defs>
    <linearGradient id="logoGradient" x1="0%" y1="0%" x2="100%" y2="100%">
      <stop offset="0%" stop-color="#ff7e5f" />
      <stop offset="100%" stop-color="#ff5c39" />
    </linearGradient>
    <filter id="shadow" x="-20%" y="-20%" width="140%" height="140%">
      <feDropShadow dx="0" dy="2" stdDeviation="2" flood-opacity="0.3" />
    </filter>
  </defs>
  
  <!-- Main rounded rectangle background -->
  <rect x="10" y="15" width="100" height="50" rx="10" fill="url(#logoGradient)" filter="url(#shadow)" />
  
  <!-- Inner white area -->
  <rect x="15" y="20" width="90" height="40" rx="6" fill="white" />
  
  <!-- Keyboard keys background -->
  <rect x="20" y="45" width="80" height="10" rx="2" fill="#f0f0f0" stroke="#e0e0e0" stroke-width="1" />
  
  <!-- Keyboard keys -->
  <rect x="22" y="46" width="6" height="8" rx="1" fill="white" stroke="#d0d0d0" stroke-width="0.5" />
  <rect x="30" y="46" width="6" height="8" rx="1" fill="white" stroke="#d0d0d0" stroke-width="0.5" />
  <rect x="38" y="46" width="6" height="8" rx="1" fill="white" stroke="#d0d0d0" stroke-width="0.5" />
  <rect x="46" y="46" width="6" height="8" rx="1" fill="white" stroke="#d0d0d0" stroke-width="0.5" />
  <rect x="54" y="46" width="6" height="8" rx="1" fill="white" stroke="#d0d0d0" stroke-width="0.5" />
  <rect x="62" y="46" width="6" height="8" rx="1" fill="white" stroke="#d0d0d0" stroke-width="0.5" />
  <rect x="70" y="46" width="6" height="8" rx="1" fill="white" stroke="#d0d0d0" stroke-width="0.5" />
  <rect x="78" y="46" width="6" height="8" rx="1" fill="white" stroke="#d0d0d0" stroke-width="0.5" />
  <rect x="86" y="46" width="6" height="8" rx="1" fill="white" stroke="#d0d0d0" stroke-width="0.5" />
  <rect x="92" y="46" width="6" height="8" rx="1" fill="white" stroke="#d0d0d0" stroke-width="0.5" />
  
  <!-- Special key with accent -->
  <rect x="54" y="46" width="6" height="8" rx="1" fill="#ff5c39" stroke="#ff5c39" stroke-width="0.5" />
  <text x="57" y="52" font-family="Arial, sans-serif" font-size="6" font-weight="bold" fill="white" text-anchor="middle" dominant-baseline="middle">é</text>
  
  <!-- Logo text -->
  <text x="60" y="38" font-family="Arial, sans-serif" font-size="18" font-weight="bold" fill="#333" text-anchor="middle" filter="url(#shadow)">
    <tspan fill="#ff5c39">type</tspan><tspan fill="#333">it</tspan>
  </text>
  
  <!-- Cursor animation -->
  <rect x="82" y="32" width="2" height="14" fill="#333">
    <animate attributeName="opacity" values="1;0;1" dur="1.2s" repeatCount="indefinite" />
  </rect>
</svg>

